<?xml version="1.0" encoding="utf-8"?>
<!-- Generator: Adobe Illustrator 16.0.4, SVG Export Plug-In . SVG Version: 6.00 Build 0)  -->
<!DOCTYPE svg PUBLIC "-//W3C//DTD SVG 1.1//EN" "http://www.w3.org/Graphics/SVG/1.1/DTD/svg11.dtd">
<svg version="1.1" id="Layer_1" xmlns="http://www.w3.org/2000/svg" xmlns:xlink="http://www.w3.org/1999/xlink" x="0px" y="0px"
	 width="78.677px" height="116.056px" viewBox="0 0 78.677 116.056" enable-background="new 0 0 78.677 116.056"
	 xml:space="preserve">
<g>
	<path fill-rule="evenodd" clip-rule="evenodd" fill="#B72426" d="M71.592,53.454c-2.31-0.05-4.62-0.01-7.47-0.01
		c0-9.43-0.07-18.06,0.02-26.68c0.12-11.51-5.159-20.59-15.239-24.67c-9.82-3.99-18.96-2.25-26.811,4.97
		c-6.21,5.7-7.91,13.25-8.01,21.28c-0.1,8.25-0.02,16.5-0.02,25.1c-2.17,0-3.64-0.01-5.11,0c-8.09,0.07-8.94,0.9-8.95,8.79
		c0,15.31-0.01,30.63,0.01,45.939c0,6.471,1.29,7.79,7.94,7.841c10.98,0.06,21.97,0.02,32.96,0.02c10.149,0,20.3,0.07,30.45-0.04
		c5.92-0.07,7.3-1.59,7.3-7.46c0.02-15.979,0.02-31.96,0-47.93C78.653,55.004,77.233,53.594,71.592,53.454z M30.592,95.114
		l4.37-10.93l0.08-0.2c-1.35-1.19-2.2-2.93-2.2-4.87c0-3.59,2.91-6.5,6.5-6.5s6.5,2.91,6.5,6.5c0,1.95-0.859,3.69-2.21,4.88
		l0.08,0.19l4.37,10.93H30.592z M52.123,53.104h-25.62c0-10.14-0.45-19.95,0.15-29.7c0.44-7.27,6.59-11.63,13.94-11.2
		c6.521,0.39,11.47,5.98,11.521,13.17C52.163,34.504,52.123,43.634,52.123,53.104z"/>
</g>
</svg>
