<?xml version="1.0" encoding="utf-8"?>
<!-- Generator: Adobe Illustrator 16.0.4, SVG Export Plug-In . SVG Version: 6.00 Build 0)  -->
<!DOCTYPE svg PUBLIC "-//W3C//DTD SVG 1.1//EN" "http://www.w3.org/Graphics/SVG/1.1/DTD/svg11.dtd">
<svg version="1.1" id="Layer_1" xmlns="http://www.w3.org/2000/svg" xmlns:xlink="http://www.w3.org/1999/xlink" x="0px" y="0px"
	 width="2023.6px" height="435.748px" viewBox="0 0 2023.6 435.748" enable-background="new 0 0 2023.6 435.748"
	 xml:space="preserve">
<g>
	<rect y="167.528" fill-rule="evenodd" clip-rule="evenodd" fill="#414042" width="1209.909" height="102.01"/>
	<rect y="242.151" fill-rule="evenodd" clip-rule="evenodd" fill="#B72426" width="1209.909" height="27.387"/>
</g>
<g>
	<rect y="327.94" fill-rule="evenodd" clip-rule="evenodd" fill="#414042" width="1387.675" height="102.011"/>
	<rect y="402.563" fill-rule="evenodd" clip-rule="evenodd" fill="#B72426" width="1387.675" height="27.388"/>
</g>
<g>
	<path fill="#B72426" d="M1740.368,435.748h-77.812V0h77.812V435.748z"/>
	<path fill="#B72426" d="M2023.6,61.627h-80.302v374.121h-77.812V61.627h-79.68V0H2023.6V61.627z"/>
</g>
<g>
	<path d="M1356.453,95.551c0,21.117-12.334,37.375-34.759,37.375h-34.759V2.114h30.274c21.677,0,34.011,12.147,34.011,32.89
		c0,11.026-5.046,23.359-14.763,27.284C1348.604,67.52,1356.453,77.424,1356.453,95.551z M1310.295,51.822h1.122
		c16.631,0,19.434-3.551,19.434-16.071c0-9.344-3.55-14.95-11.772-14.95h-8.783V51.822z M1318.144,114.238
		c9.344,0,16.071-8.223,16.071-18.688c0-14.016-4.298-23.92-19.248-23.92h-4.672v42.607H1318.144z"/>
	<path d="M1439.049,2.114v103.341c0,13.268-10.465,29.152-33.824,29.152c-25.602,0-35.133-15.884-35.133-29.152V2.114h23.359
		v103.155c0,3.924,3.551,10.652,11.773,10.652c6.728,0,10.465-6.728,10.465-10.652V2.114H1439.049z"/>
	<path d="M1480.346,132.926h-23.359V2.114h23.359V132.926z"/>
	<path d="M1552.29,114.238v18.688h-54.007V2.114h23.359v112.125H1552.29z"/>
	<path d="M1637.317,39.489v56.062c0,19.996-8.971,37.375-29.153,37.375h-42.233V2.114h42.233c13.269,0,24.294,9.157,27.284,21.677
		C1636.569,28.837,1637.317,34.069,1637.317,39.489z M1603.306,114.238c9.344,0,11.773-8.223,11.773-18.688V39.489
		c0-10.465-2.43-18.688-11.773-18.688h-14.016v93.437H1603.306z"/>
</g>
<g>
	<path d="M1307.671,252.419c0,21.117-12.334,37.375-34.759,37.375h-34.759V158.982h30.273c21.678,0,34.012,12.147,34.012,32.89
		c0,11.025-5.046,23.359-14.764,27.283C1299.822,224.388,1307.671,234.293,1307.671,252.419z M1261.513,208.69h1.121
		c16.633,0,19.436-3.551,19.436-16.071c0-9.344-3.551-14.95-11.773-14.95h-8.783V208.69z M1269.362,271.106
		c9.343,0,16.07-8.223,16.07-18.688c0-14.016-4.298-23.92-19.248-23.92h-4.672v42.607H1269.362z"/>
	<path d="M1374.195,289.794l-22.238-52.698c-3.177,0-6.54,0-7.475,0v52.698h-23.173V158.982h39.057
		c22.425,0,33.077,16.445,33.077,37.375c0,19.435-8.409,31.956-19.622,37.562l24.668,55.875H1374.195z M1344.482,217.287h7.475
		c15.137,0,19.248-1.868,19.248-20.93c0-10.465-2.429-18.688-11.586-18.688h-15.137V217.287z"/>
	<path d="M1433.058,177.67v32.142h23.733v18.688h-23.733v42.607h35.693v18.688h-59.053V158.982h56.437v18.688H1433.058z"/>
	<path d="M1527.239,259.334h-22.611l-4.485,30.46h-22.051l26.91-130.812h23.359l26.909,130.812h-23.359L1527.239,259.334z
		 M1523.502,240.46l-7.101-46.906h-0.561l-7.288,46.906H1523.502z"/>
	<path d="M1593.951,239.525h-1.121l-0.561,1.308v48.961h-23.359V158.982h23.359v46.719h0.374l22.985-46.719h22.052l-31.582,58.491
		l38.683,72.32h-26.91L1593.951,239.525z"/>
</g>
<g>
	<path d="M1443.339,323.624v32.142h23.546v18.688h-23.546v61.295h-23.359V304.937h56.249v18.688H1443.339z"/>
	<path d="M1525.374,435.748h-23.359V304.937h23.359V435.748z"/>
	<path d="M1604.233,370.342l28.592,65.406H1610.4l-19.062-43.168l-17.566,43.168h-22.611l28.778-65.406l-28.778-65.405h22.611
		l18.875,43.354l17.753-43.354h22.425L1604.233,370.342z"/>
</g>
<g>
	<rect y="7.116" fill-rule="evenodd" clip-rule="evenodd" fill="#414042" width="1264.909" height="102.01"/>
	<rect y="81.739" fill-rule="evenodd" clip-rule="evenodd" fill="#B72426" width="1264.909" height="27.387"/>
</g>
</svg>
