<?xml version="1.0" encoding="utf-8"?>
<!-- Generator: Adobe Illustrator 16.0.4, SVG Export Plug-In . SVG Version: 6.00 Build 0)  -->
<!DOCTYPE svg PUBLIC "-//W3C//DTD SVG 1.1//EN" "http://www.w3.org/Graphics/SVG/1.1/DTD/svg11.dtd">
<svg version="1.1" id="Layer_1" xmlns="http://www.w3.org/2000/svg" xmlns:xlink="http://www.w3.org/1999/xlink" x="0px" y="0px"
	 width="77.305px" height="77.3px" viewBox="0 0 77.305 77.3" enable-background="new 0 0 77.305 77.3" xml:space="preserve">
<g>
	<path fill-rule="evenodd" clip-rule="evenodd" fill="#B72426" d="M38.516,0c21.028-0.107,38.632,17.29,38.788,38.33
		C77.46,59.586,60.049,77.199,38.785,77.3C17.737,77.401,0.165,60.036,0.001,38.977C-0.165,17.745,17.265,0.109,38.516,0z
		 M45.89,49.012c0-4.384,0.049-8.768-0.016-13.149c-0.064-4.434-2.792-7.386-6.736-7.446c-3.96-0.062-6.908,2.884-6.947,7.228
		c-0.076,8.764-0.076,17.532,0,26.297c0.037,4.363,2.955,7.302,6.916,7.259c3.954-0.046,6.697-2.984,6.768-7.415
		C45.941,57.529,45.89,53.271,45.89,49.012z M45.877,16.316c-0.073-3.793-3.278-6.833-7.081-6.71
		c-3.652,0.116-6.598,3.144-6.614,6.799c-0.02,3.819,3.081,6.924,6.892,6.899C42.883,23.28,45.951,20.128,45.877,16.316z"/>
</g>
</svg>
