<?xml version="1.0" encoding="utf-8"?>
<!-- Generator: Adobe Illustrator 16.0.4, SVG Export Plug-In . SVG Version: 6.00 Build 0)  -->
<!DOCTYPE svg PUBLIC "-//W3C//DTD SVG 1.1//EN" "http://www.w3.org/Graphics/SVG/1.1/DTD/svg11.dtd">
<svg version="1.1" id="Layer_1" xmlns="http://www.w3.org/2000/svg" xmlns:xlink="http://www.w3.org/1999/xlink" x="0px" y="0px"
	 width="117.976px" height="182.17px" viewBox="0 0 117.976 182.17" enable-background="new 0 0 117.976 182.17"
	 xml:space="preserve">
<g>
	<g>
		<path fill="#B72426" d="M27.738,108.96c0.93,2.43,2.74,4.41,5.11,5.55c2.74,1.32,6.07,1.33,8.82,0.03l5.52-2.61l3.85,4.75
			c1.4,1.73,3.29,2.94,5.39,3.471c0.83,0.22,1.69,0.329,2.56,0.329c0.87,0,1.72-0.109,2.55-0.329"/>
		<path fill="#B72426" d="M115.788,65.05c1.91,2.44,2.62,5.57,1.93,8.601c-0.69,3.02-2.69,5.539-5.48,6.899l-5.48,2.69l1.32,5.97
			c0.67,3.03-0.06,6.16-1.99,8.59c-1.94,2.42-4.83,3.83-7.93,3.851l-6.11,0.039l-0.9,3.82l-0.51,2.13c-0.11,0.46-0.24,0.9-0.41,1.33
			c-0.15,0.391-0.32,0.771-0.52,1.141c-1,1.899-2.59,3.439-4.58,4.399c-2.18,1.05-4.75,1.271-7.09,0.66
			c-0.59-0.15-1.17-0.36-1.73-0.62l-5.52-2.62l-3.85,4.75c-1.4,1.73-3.3,2.94-5.4,3.471c-0.83,0.22-1.68,0.329-2.55,0.329
			c-0.87,0-1.73-0.109-2.56-0.329c-2.1-0.53-3.99-1.74-5.39-3.471l-3.85-4.75l-5.52,2.61c-2.75,1.3-6.08,1.29-8.82-0.03
			c-2.37-1.14-4.18-3.12-5.11-5.55c-0.17-0.43-0.3-0.87-0.41-1.32l-0.5-2.14l-0.9-3.811l-6.11-0.039
			c-3.1-0.021-5.99-1.431-7.93-3.851c-1.93-2.43-2.66-5.56-1.99-8.59l1.32-5.97l-5.49-2.69c-2.78-1.36-4.78-3.88-5.47-6.899
			c-0.69-3.03,0.02-6.16,1.93-8.601l3.78-4.81l-3.78-4.801c-1.91-2.439-2.62-5.579-1.93-8.6c0.69-3.03,2.69-5.55,5.47-6.91
			l5.49-2.689l-1.32-5.97c-0.67-3.03,0.06-6.16,1.99-8.59c1.94-2.42,4.83-3.83,7.93-3.85l6.11-0.04l1.4-5.95
			c0.72-3.02,2.73-5.52,5.52-6.87c2.74-1.32,6.08-1.33,8.82-0.03l5.52,2.61l3.85-4.75c1.95-2.41,4.85-3.8,7.95-3.8s6,1.39,7.95,3.8
			l3.85,4.75l5.52-2.61c2.74-1.3,6.08-1.29,8.81,0.03c2.8,1.35,4.81,3.85,5.52,6.87l1.41,5.95l6.11,0.04
			c3.1,0.02,5.99,1.43,7.93,3.85c1.93,2.43,2.66,5.56,1.99,8.59l-1.32,5.97l5.48,2.689c2.79,1.36,4.79,3.88,5.48,6.91
			c0.69,3.021-0.02,6.16-1.93,8.6l-3.78,4.801L115.788,65.05z"/>
	</g>
	<path fill="#B72426" d="M55.118,123.95l-19.99,58.22l-11.35-14.37l-18.36-0.28l19.22-55.699c1.4,2.72,3.65,4.93,6.48,6.3
		c3.8,1.83,8.44,1.85,12.26,0.04l2.68-1.271l1.87,2.311C49.808,121.52,52.318,123.16,55.118,123.95z"/>
	<path fill="#B72426" d="M112.548,167.52l-18.36,0.28l-11.35,14.37l-19.99-58.22c2.81-0.79,5.32-2.431,7.2-4.75l0.71-0.87l1.16-1.44
		l1.03,0.49l1.65,0.78c3.81,1.8,8.45,1.79,12.26-0.04c2.82-1.36,5.07-3.57,6.47-6.29L112.548,167.52z"/>
</g>
</svg>
